<svg xmlns="http://www.w3.org/2000/svg" version="1.1" xmlns:xlink="http://www.w3.org/1999/xlink" xmlns:svgjs="http://svgjs.dev/svgjs" width="2000" height="1999" viewBox="0 0 2000 1999"><g transform="matrix(1,0,0,1,-0.4314868804665366,-0.4312711370263287)"><svg viewBox="0 0 343 343" data-background-color="#ffffff" preserveAspectRatio="xMidYMid meet" height="1999" width="2000" xmlns="http://www.w3.org/2000/svg" xmlns:xlink="http://www.w3.org/1999/xlink"><g id="tight-bounds" transform="matrix(1,0,0,1,0.07400000000001228,0.07400000000001228)"><svg viewBox="0 0 342.8515585177538 342.8515585177538" height="342.8515585177538" width="342.8515585177538"><g><svg></svg></g><g><svg viewBox="0 0 342.8515585177538 342.8515585177538" height="342.8515585177538" width="342.8515585177538"><g><path d="M0 171.426c0-94.676 76.75-171.426 171.426-171.426 94.676 0 171.426 76.75 171.426 171.426 0 94.676-76.75 171.426-171.426 171.426-94.676 0-171.426-76.75-171.426-171.426zM171.426 332.503c88.96 0 161.077-72.117 161.077-161.077 0-88.96-72.117-161.077-161.077-161.077-88.96 0-161.077 72.117-161.077 161.077 0 88.96 72.117 161.077 161.077 161.077z" data-fill-palette-color="tertiary" fill="#8abe53" stroke="transparent"></path><ellipse rx="164.56874808852183" ry="164.56874808852183" cx="171.4257792588769" cy="171.4257792588769" fill="#8abe53" stroke="transparent" stroke-width="0" fill-opacity="1" data-fill-palette-color="tertiary"></ellipse></g><g transform="matrix(1,0,0,1,64.84655864529836,114.04695403207822)"><svg viewBox="0 0 213.15844122715708 114.75765045359736" height="114.75765045359736" width="213.15844122715708"><g><svg viewBox="0 0 213.15844122715708 114.75765045359736" height="114.75765045359736" width="213.15844122715708"><g><svg viewBox="0 0 213.15844122715708 114.75765045359736" height="114.75765045359736" width="213.15844122715708"><g><svg viewBox="0 0 213.15844122715708 114.75765045359736" height="114.75765045359736" width="213.15844122715708"><g id="textblocktransform"><svg viewBox="0 0 213.15844122715708 114.75765045359736" height="114.75765045359736" width="213.15844122715708" id="textblock"><g><svg viewBox="0 0 213.15844122715708 114.75765045359736" height="114.75765045359736" width="213.15844122715708"><g transform="matrix(1,0,0,1,0,0)"><svg width="213.15844122715708" viewBox="6.150000095367432 -43.849998474121094 82.0999984741211 44.19999694824219" height="114.75765045359736" data-palette-color="#ffffff"><path d="M43.2-21.6Q44.35-21.6 44.88-21.1 45.4-20.6 45.4-19.8L45.4-19.8Q45.4-18.5 44.63-17.5 43.85-16.5 42.2-16.45L42.2-16.45Q38.2-16.35 35.1-17.05L35.1-17.05Q31.55-9.6 26.53-4.67 21.5 0.25 16.45 0.25L16.45 0.25Q11.25 0.25 8.7-5.8 6.15-11.85 6.15-22.15L6.15-22.15Q6.15-30.95 7.4-37.95L7.4-37.95Q7.85-40.55 8.68-41.48 9.5-42.4 11.5-42.4L11.5-42.4Q14.8-42.4 14.8-39.55L14.8-39.55Q14.8-39.25 14.7-38.45L14.7-38.45Q13.2-29.45 13.2-22.15L13.2-22.15Q13.2-14.5 14.48-10.53 15.75-6.55 18.3-6.55L18.3-6.55Q20.9-6.55 23.95-10.15 27-13.75 29.55-19.2L29.55-19.2Q26.5-21.1 24.95-24.13 23.4-27.15 23.4-31.1L23.4-31.1Q23.4-35.05 24.63-37.77 25.85-40.5 27.98-41.85 30.1-43.2 32.7-43.2L32.7-43.2Q35.9-43.2 37.77-40.9 39.65-38.6 39.65-34.6L39.65-34.6Q39.65-28.85 37.15-22.05L37.15-22.05Q39.8-21.6 43.2-21.6L43.2-21.6ZM28.45-31.45Q28.45-26.55 31.6-24.2L31.6-24.2Q33.55-29.8 33.55-33.45L33.55-33.45Q33.55-35.55 33-36.52 32.45-37.5 31.5-37.5L31.5-37.5Q30.15-37.5 29.3-35.93 28.45-34.35 28.45-31.45L28.45-31.45ZM86.85-11.15Q87.5-11.15 87.87-10.55 88.25-9.95 88.25-8.9L88.25-8.9Q88.25-6.95 87.3-5.8L87.3-5.8Q82.35 0.25 76.75 0.25L76.75 0.25Q71.9 0.25 69-3.5 66.1-7.25 66.1-14.25L66.1-14.25Q66.1-15.95 66.25-17.65L66.25-17.65Q62.95-17.05 59.05-16.75L59.05-16.75Q56.45-16.55 55.5-16.5L55.5-16.5Q54.5-11.4 52.7-4L52.7-4Q51.65 0.35 48.7 0.35L48.7 0.35Q45.5 0.35 45.5-2.55L45.5-2.55Q45.5-3.2 45.75-4.35L45.75-4.35Q47.45-11.2 48.45-15.95L48.45-15.95 46.05-15.85Q44.4-15.85 43.65-16.43 42.9-17 42.9-18.3L42.9-18.3Q42.9-19.95 43.85-20.73 44.8-21.5 47-21.6L47-21.6 49.65-21.7Q50.95-28.75 50.95-32.45L50.95-32.45Q50.95-34.8 50.25-35.65 49.55-36.5 48.4-36.5L48.4-36.5Q44.9-36.5 40.5-30.65L40.5-30.65Q39.85-29.8 39.05-29.8L39.05-29.8Q38.35-29.8 37.85-30.45 37.35-31.1 37.35-32.1L37.35-32.1Q37.35-33.65 38.6-35.4L38.6-35.4Q40.8-38.45 44.15-40.43 47.5-42.4 50.95-42.4L50.95-42.4Q54.2-42.4 55.97-40.18 57.75-37.95 57.75-33.25L57.75-33.25Q57.75-29.1 56.55-22L56.55-22 61.45-22.25Q64.6-22.4 66.85-22.75L66.85-22.75Q67.75-28.25 69.6-33.05 71.45-37.85 74.2-40.85 76.95-43.85 80.35-43.85L80.35-43.85Q82.85-43.85 84.3-41.88 85.75-39.9 85.75-36.7L85.75-36.7Q85.75-24.3 73.1-19.5L73.1-19.5Q72.95-17.5 72.95-15.35L72.95-15.35Q72.95-10.1 74.25-7.9 75.55-5.7 77.9-5.7L77.9-5.7Q79.95-5.7 81.65-6.78 83.35-7.85 85.5-10.45L85.5-10.45Q86.1-11.15 86.85-11.15L86.85-11.15ZM80.1-39.5Q79-39.5 77.77-37.5 76.55-35.5 75.45-32.05 74.35-28.6 73.7-24.5L73.7-24.5Q77.7-26.15 79.6-29.2 81.5-32.25 81.5-37.05L81.5-37.05Q81.5-38.2 81.1-38.85 80.7-39.5 80.1-39.5L80.1-39.5Z" opacity="1" transform="matrix(1,0,0,1,0,0)" fill="#ffffff" class="wordmark-text-0" data-fill-palette-color="quaternary" id="text-0"></path></svg></g></svg></g></svg></g></svg></g></svg></g></svg></g></svg></g></svg></g><defs></defs></svg><rect width="342.8515585177538" height="342.8515585177538" fill="none" stroke="none" visibility="hidden"></rect></g></svg></g></svg>